<svg width="33" height="29" viewBox="0 0 33 29" fill="none" xmlns="http://www.w3.org/2000/svg">
<path d="M2.68684 16.2497C2.66029 15.9841 2.64011 15.7186 2.6263 15.4531C2.61249 15.1875 2.60612 14.922 2.60718 14.6564C2.60718 12.6649 2.97893 10.7998 3.72244 9.06103C4.46595 7.32228 5.48827 5.80871 6.78941 4.52032C8.09054 3.23193 9.60411 2.20961 11.3301 1.45336C13.0561 0.697105 14.9149 0.318447 16.9064 0.317385C18.8979 0.316323 20.7636 0.69498 22.5034 1.45336C24.2432 2.21173 25.7568 3.23353 27.0441 4.51873C28.3315 5.80394 29.3538 7.3175 30.1111 9.05943C30.8684 10.8014 31.2465 12.667 31.2455 14.6564C31.2455 14.922 31.2391 15.1875 31.2264 15.4531C31.2136 15.7186 31.1934 15.9841 31.1658 16.2497H27.9395C27.9926 15.9841 28.0261 15.7186 28.0399 15.4531C28.0537 15.1875 28.0601 14.922 28.059 14.6564C28.058 14.3909 28.0516 14.1254 28.0399 13.8598C28.0282 13.5943 27.9948 13.3288 27.9395 13.0632H23.2395C23.2661 13.3288 23.2793 13.5943 23.2793 13.8598V15.4531C23.2793 15.7186 23.2661 15.9841 23.2395 16.2497H20.0929V14.9353C20.0929 14.6166 20.0865 14.298 20.0738 13.9793C20.061 13.6607 20.0408 13.3553 20.0132 13.0632H13.8394C13.8129 13.3553 13.7932 13.6607 13.7805 13.9793C13.7678 14.298 13.7608 14.6166 13.7598 14.9353V16.2497H10.6132C10.5866 15.9841 10.5733 15.7186 10.5733 15.4531V13.8598C10.5733 13.5943 10.5866 13.3288 10.6132 13.0632H5.91313C5.86002 13.3288 5.8271 13.5943 5.81435 13.8598C5.80161 14.1254 5.7947 14.3909 5.79364 14.6564C5.79258 14.922 5.79948 15.1875 5.81435 15.4531C5.82922 15.7186 5.86215 15.9841 5.91313 16.2497H2.68684ZM6.86907 9.87676H10.9716C11.1841 8.73495 11.4496 7.70625 11.7682 6.79068C12.0869 5.8751 12.4321 5.04503 12.8038 4.30046C11.5293 4.77843 10.3742 5.50228 9.33857 6.47203C8.30297 7.44177 7.47981 8.57668 6.86907 9.87676ZM14.2776 9.87676H19.5352C19.2697 8.73495 18.9378 7.61969 18.5395 6.53098C18.1412 5.44227 17.5968 4.43323 16.9064 3.50384C16.216 4.43323 15.6653 5.44227 15.2542 6.53098C14.8432 7.61969 14.5176 8.73495 14.2776 9.87676ZM22.881 9.87676H26.9836C26.3728 8.57562 25.5433 7.44071 24.495 6.47203C23.4466 5.50335 22.2846 4.77949 21.009 4.30046C21.3807 5.09707 21.7328 5.94042 22.0653 6.83051C22.3977 7.72059 22.6697 8.73601 22.881 9.87676ZM15.3132 28.9955V27.4023C15.3132 26.0746 14.8485 24.9461 13.9191 24.0167C12.9897 23.0873 11.8612 22.6226 10.5335 22.6226H0.974121V19.4361H10.5335C11.8081 19.4361 12.9966 19.7149 14.0991 20.2726C15.2017 20.8302 16.1374 21.6135 16.9064 22.6226C17.6765 21.6135 18.6128 20.8302 19.7153 20.2726C20.8178 19.7149 22.0058 19.4361 23.2793 19.4361H32.8387V22.6226H23.2793C21.9516 22.6226 20.8231 23.0873 19.8937 24.0167C18.9643 24.9461 18.4996 26.0746 18.4996 27.4023V28.9955H15.3132Z" fill="white"/>
</svg>
