<svg width="24" height="33" viewBox="0 0 24 33" fill="none" xmlns="http://www.w3.org/2000/svg">
<path d="M12.0003 11.8767C10.4601 11.8767 9.14572 11.3324 8.05702 10.2437C6.96831 9.15496 6.42396 7.84054 6.42396 6.30042C6.42396 4.7603 6.96831 3.44589 8.05702 2.35718C9.14572 1.26847 10.4601 0.724121 12.0003 0.724121C13.5404 0.724121 14.8548 1.26847 15.9435 2.35718C17.0322 3.44589 17.5766 4.7603 17.5766 6.30042C17.5766 7.84054 17.0322 9.15496 15.9435 10.2437C14.8548 11.3324 13.5404 11.8767 12.0003 11.8767ZM12.0003 32.5887L2.44089 23.0293C1.90981 22.4983 1.5115 21.9008 1.24596 21.2369C0.980425 20.5731 0.847656 19.8429 0.847656 19.0463C0.847656 17.4796 1.38564 16.1583 2.4616 15.0823C3.53756 14.0063 4.85835 13.4689 6.42396 13.47C7.19402 13.47 7.9046 13.616 8.5557 13.9081C9.2068 14.2002 9.79735 14.6118 10.3274 15.1428L12.0003 16.8157L13.6732 15.1428C14.2042 14.6118 14.7953 14.2002 15.4464 13.9081C16.0975 13.616 16.8076 13.47 17.5766 13.47C19.1432 13.47 20.4646 14.0079 21.5405 15.0839C22.6165 16.1599 23.1539 17.4806 23.1529 19.0463C23.1529 19.8429 23.0201 20.5731 22.7546 21.2369C22.489 21.9008 22.0907 22.4983 21.5596 23.0293L12.0003 32.5887Z" fill="white"/>
</svg>
