<svg width="32" height="33" viewBox="0 0 32 33" fill="none" xmlns="http://www.w3.org/2000/svg">
<path d="M0.241339 18.2495H8.96745C9.24008 23.295 10.8483 28.1775 13.6277 32.3974C10.146 31.8509 6.94371 30.166 4.5214 27.6061C2.0991 25.0463 0.594985 21.7559 0.241339 18.2495ZM0.239746 15.063C0.592979 11.5565 2.0983 8.26596 4.52033 5.70586C6.94235 3.14575 10.1445 1.46048 13.6261 0.913574C10.8467 5.13342 9.23849 10.0159 8.96586 15.0614L0.239746 15.063ZM31.945 15.063H23.2189C22.9465 10.017 21.3383 5.13388 18.5587 0.913574C22.0403 1.46009 25.2426 3.14498 27.6649 5.7048C30.0872 8.26461 31.593 11.555 31.9466 15.0614M31.9466 18.2479C31.593 21.7541 30.0876 25.0443 27.6656 27.6041C25.2436 30.1639 22.0416 31.8489 18.5603 32.3958C21.3393 28.1764 22.9476 23.2945 23.2205 18.2495L31.9466 18.2479ZM12.1587 18.2495H20.0292C19.7676 22.5505 18.4131 26.7137 16.094 30.3453C13.7748 26.7137 12.4204 22.5505 12.1587 18.2495ZM12.1587 15.063C12.4204 10.762 13.7748 6.59887 16.094 2.96725C18.4131 6.59887 19.7676 10.762 20.0292 15.063H12.1587Z" fill="white"/>
</svg>
