<svg width="31" height="31" viewBox="0 0 31 31" fill="none" xmlns="http://www.w3.org/2000/svg">
<path fill-rule="evenodd" clip-rule="evenodd" d="M22.551 1.95841C22.2539 1.48357 21.8161 1.1132 21.2986 0.89885C20.7811 0.684499 20.2096 0.636835 19.6638 0.762494L15.7897 1.65243C15.3927 1.74369 14.9801 1.74369 14.5831 1.65243L10.709 0.762494C10.1631 0.636835 9.59168 0.684499 9.07418 0.89885C8.55668 1.1132 8.11888 1.48357 7.82172 1.95841L5.71015 5.32853C5.49468 5.6733 5.2038 5.9642 4.85905 6.18184L1.48915 8.29355C1.01516 8.59047 0.645354 9.02758 0.431063 9.54423C0.216772 10.0609 0.168625 10.6314 0.293307 11.1767L1.18319 15.0553C1.27411 15.4517 1.27411 15.8635 1.18319 16.2599L0.293307 20.1364C0.168141 20.682 0.216045 21.253 0.430359 21.7701C0.644673 22.2872 1.01475 22.7246 1.48915 23.0217L4.85905 25.1334C5.2038 25.3489 5.49468 25.6398 5.7123 25.9845L7.82388 29.3547C8.43149 30.3265 9.59071 30.807 10.709 30.5506L14.5831 29.6606C14.9801 29.5694 15.3927 29.5694 15.7897 29.6606L19.6659 30.5506C20.2115 30.6757 20.7825 30.6278 21.2995 30.4135C21.8166 30.1992 22.254 29.8291 22.551 29.3547L24.6626 25.9845C24.8781 25.6398 25.169 25.3489 25.5137 25.1334L28.8858 23.0217C29.3602 22.7242 29.7301 22.2862 29.944 21.7687C30.158 21.2512 30.2053 20.6799 30.0795 20.1342L29.1917 16.2599C29.1005 15.8628 29.1005 15.4502 29.1917 15.0532L30.0816 11.1767C30.207 10.6313 30.1594 10.0605 29.9455 9.54341C29.7316 9.02634 29.3619 8.58874 28.8879 8.2914L25.5159 6.17968C25.1716 5.96381 24.8806 5.67282 24.6648 5.32853L22.551 1.95841ZM21.4672 10.8513C21.6005 10.6062 21.6335 10.319 21.5594 10.0501C21.4852 9.78117 21.3096 9.55149 21.0695 9.4094C20.8295 9.26731 20.5437 9.22388 20.2722 9.28825C20.0008 9.35262 19.7649 9.51976 19.6142 9.75451L13.9798 19.2917L10.5775 16.0336C10.4766 15.93 10.3558 15.8477 10.2224 15.7918C10.089 15.7358 9.94572 15.7073 9.80106 15.7079C9.65639 15.7086 9.51334 15.7383 9.38043 15.7954C9.24751 15.8526 9.12746 15.9359 9.02744 16.0404C8.92741 16.1449 8.84946 16.2685 8.79823 16.4038C8.747 16.5391 8.72355 16.6833 8.72926 16.8279C8.73497 16.9725 8.76974 17.1144 8.83149 17.2452C8.89324 17.376 8.98071 17.4931 9.08867 17.5894L13.4713 21.7891C13.5886 21.9013 13.7297 21.9855 13.8841 22.0355C14.0385 22.0854 14.2022 22.0999 14.363 22.0777C14.5237 22.0555 14.6774 21.9973 14.8125 21.9074C14.9477 21.8175 15.0607 21.6983 15.1433 21.5586L21.4672 10.8513Z" fill="white"/>
</svg>
