<svg width="50" height="60" viewBox="0 0 50 60" fill="none" xmlns="http://www.w3.org/2000/svg">
<path d="M41.2274 31.7398C41.2572 29.4831 41.8711 27.2705 43.0122 25.3078C44.1532 23.345 45.7842 21.696 47.7534 20.514C46.5024 18.7697 44.8521 17.3342 42.9334 16.3215C41.0148 15.3089 38.8807 14.7469 36.7007 14.6803C32.0503 14.2038 27.542 17.3971 25.1723 17.3971C22.7567 17.3971 19.1081 14.7276 15.1792 14.8066C12.6379 14.8867 10.1611 15.6082 7.99033 16.9007C5.81953 18.1932 4.02868 20.0127 2.79227 22.1818C-2.56345 31.2348 1.43145 44.5398 6.56187 51.8576C9.12875 55.4409 12.1287 59.4436 16.0541 59.3017C19.8953 59.1461 21.3299 56.9103 25.9665 56.9103C30.5602 56.9103 31.9061 59.3017 35.9111 59.2114C40.0329 59.1461 42.6298 55.6122 45.1067 51.9949C46.951 49.4417 48.3702 46.6198 49.3117 43.6338C46.917 42.645 44.8735 40.9898 43.4359 38.8747C41.9983 36.7596 41.2302 34.2782 41.2274 31.7398Z" fill="white"/>
<path d="M33.6626 9.86721C35.91 7.23327 37.0172 3.84777 36.7491 0.429688C33.3156 0.781759 30.144 2.38384 27.8663 4.91673C26.7526 6.15411 25.8997 7.59364 25.3562 9.15304C24.8127 10.7124 24.5894 12.3611 24.699 14.0048C26.4163 14.0221 28.1153 13.6587 29.6679 12.942C31.2206 12.2253 32.5864 11.174 33.6626 9.86721Z" fill="white"/>
</svg>
