<svg width="16" height="17" viewBox="0 0 16 17" fill="none" xmlns="http://www.w3.org/2000/svg">
<path d="M4 2.12324C4 1.5899 4.19556 1.12768 4.58667 0.736568C4.97778 0.345457 5.45778 0.149902 6.02667 0.149902H14.0267C14.56 0.149902 15.0222 0.345457 15.4133 0.736568C15.8044 1.12768 16 1.60768 16 2.17657V10.1232C16 10.6921 15.8044 11.1721 15.4133 11.5632C15.0222 11.9543 14.5422 12.1499 13.9733 12.1499H6.02667C5.45778 12.1499 4.97778 11.9543 4.58667 11.5632C4.19556 11.1721 4 10.6921 4 10.1232V2.12324ZM6.02667 1.16324C5.74222 1.16324 5.50222 1.26101 5.30667 1.45657C5.11111 1.65212 5.01333 1.87435 5.01333 2.12324V10.1232C5.01333 10.4077 5.11111 10.6477 5.30667 10.8432C5.50222 11.0388 5.74222 11.1366 6.02667 11.1366H14.0267C14.2756 11.1366 14.4978 11.0388 14.6933 10.8432C14.8889 10.6477 14.9867 10.4077 14.9867 10.1232V2.12324C14.9867 1.87435 14.8889 1.65212 14.6933 1.45657C14.4978 1.26101 14.2756 1.16324 14.0267 1.16324H6.02667ZM2.02667 5.16324C1.74222 5.16324 1.50222 5.26101 1.30667 5.45657C1.11111 5.65212 1.01333 5.89212 1.01333 6.17657V14.1232C1.01333 14.4077 1.11111 14.6477 1.30667 14.8432C1.50222 15.0388 1.74222 15.1366 2.02667 15.1366H10.0267C10.2756 15.1366 10.4978 15.0388 10.6933 14.8432C10.8889 14.6477 10.9867 14.4077 10.9867 14.1232V13.1632H12V14.1232C12 14.6921 11.8044 15.1721 11.4133 15.5632C11.0222 15.9543 10.5422 16.1499 9.97333 16.1499H2.02667C1.45778 16.1499 0.977778 15.9543 0.586667 15.5632C0.195556 15.1721 0 14.7099 0 14.1766V6.12324C0 5.5899 0.195556 5.12768 0.586667 4.73657C0.977778 4.34546 1.45778 4.1499 2.02667 4.1499H2.98667V5.16324H2.02667Z" fill="white"/>
</svg>
