<svg width="53" height="60" viewBox="0 0 53 60" fill="none" xmlns="http://www.w3.org/2000/svg">
<path d="M24.6779 28.5485L0.845215 54.4149C0.847453 54.4195 0.847453 54.4264 0.849691 54.4309C1.58166 57.2396 4.08872 59.3066 7.06585 59.3066C8.25671 59.3066 9.37369 58.977 10.3317 58.4002L10.4079 58.3544L37.2334 42.5255L24.6779 28.5485Z" fill="#EA4335"/>
<path d="M48.7877 24.1426L48.7653 24.1266L37.1836 17.2616L24.1357 29.135L37.2306 42.5215L48.7497 35.7252C50.7687 34.6082 52.1409 32.4313 52.1409 29.9225C52.1409 27.4274 50.7889 25.2619 48.7877 24.1426Z" fill="#FBBC04"/>
<path d="M0.844368 5.3195C0.701107 5.85971 0.625 6.4274 0.625 7.0134V52.7215C0.625 53.3075 0.701107 53.8752 0.846606 54.4131L25.4964 29.2082L0.844368 5.3195Z" fill="#4285F4"/>
<path d="M24.8538 29.8682L37.1876 17.2577L10.3934 1.37159C9.41972 0.774139 8.28259 0.43078 7.06711 0.43078C4.08998 0.43078 1.57845 2.50238 0.846475 5.31336C0.846475 5.31565 0.844238 5.31794 0.844238 5.32022L24.8538 29.8682Z" fill="#34A853"/>
</svg>
