<svg width="43" height="43" viewBox="0 0 43 43" fill="none" xmlns="http://www.w3.org/2000/svg">
<g clip-path="url(#clip0_343_1020)">
<path fill-rule="evenodd" clip-rule="evenodd" d="M11.0834 27.295C11.0834 27.4277 11.0884 27.5595 11.0985 27.6902V35.2192C8.09765 33.9632 5.49006 31.9229 3.54919 29.3122C1.60832 26.7016 0.405673 23.6168 0.0673828 20.3813H9.95525C10.1754 22.3722 10.5887 24.3329 11.192 26.2302C11.1245 26.5802 11.0881 26.9386 11.0834 27.295ZM13.7529 20.3844H19.0317L14.2657 22.4476L14.1119 22.517C13.9629 21.8102 13.8421 21.0978 13.7499 20.3813M29.1759 20.6589C28.9691 20.5701 28.7464 20.5243 28.5214 20.5243C28.2963 20.5243 28.0736 20.5701 27.8668 20.6589L15.8795 25.8532C15.7556 25.9082 15.6382 25.977 15.5296 26.0583C15.2096 26.2366 14.9431 26.4974 14.758 26.8136C14.5729 27.1297 14.4758 27.4897 14.4769 27.8561V36.9898C14.4769 37.5358 14.6938 38.0595 15.0799 38.4456C15.4659 38.8316 15.9896 39.0485 16.5356 39.0485C17.0816 39.0485 17.6052 38.8316 17.9913 38.4456C18.3774 38.0595 18.5943 37.5358 18.5943 36.9898V30.052L27.8668 34.0669C28.2861 34.2479 28.7597 34.2479 29.1759 34.0669L41.1632 28.8756C41.458 28.7479 41.709 28.5368 41.8853 28.2683C42.0615 27.9998 42.1555 27.6856 42.1555 27.3644C42.1555 27.0432 42.0615 26.729 41.8853 26.4605C41.709 26.1919 41.458 25.9809 41.1632 25.8532L29.1759 20.6589ZM20.3288 34.263L26.434 36.9084C27.0924 37.1935 27.8023 37.3407 28.5199 37.3407C29.2374 37.3407 29.9473 37.1935 30.6057 36.9084L36.711 34.263V38.3593C36.711 38.7213 36.5964 39.0712 36.3792 39.3547L35.067 38.3593L36.3762 39.3577L36.3732 39.3638L36.3671 39.3698L36.3551 39.3879L36.3158 39.4331L36.2042 39.5628C36.1137 39.6694 35.986 39.8021 35.8211 39.961C35.4893 40.2777 35.0067 40.6789 34.3642 41.0741C33.0641 41.8704 31.1306 42.6245 28.5214 42.6245C25.9092 42.6245 23.9786 41.8704 22.6816 41.0711C22.0045 40.6515 21.3858 40.1444 20.8415 39.5628L20.7299 39.4301L20.6937 39.3849L20.6817 39.3668L20.6756 39.3607V39.3547H20.6696C20.4549 39.0684 20.3385 38.7202 20.3378 38.3623L20.3288 34.263Z" fill="white"/>
<path d="M5.52824 5.44287C2.44861 8.4055 0.514534 12.3608 0.0673828 16.6107H9.95525C10.602 10.7769 12.9153 5.25283 16.6185 0.698985C16.7015 0.595479 16.7956 0.501404 16.8991 0.418457C12.6351 0.700744 8.60787 2.48024 5.52824 5.44287Z" fill="white"/>
<path d="M26.2048 16.6107H36.1017C35.6541 12.3589 33.7214 8.40205 30.6392 5.43917C27.5571 2.47629 23.5271 0.698007 19.2609 0.418457C19.3653 0.500291 19.4604 0.593353 19.5445 0.695969C23.2471 5.251 25.5594 10.7761 26.2048 16.6107Z" fill="white"/>
<path d="M22.4101 16.6107H13.7529C14.2794 12.4759 15.7614 8.51744 18.0815 5.05471C20.4021 8.51833 21.8841 12.4748 22.4101 16.6107Z" fill="white"/>
</g>
<defs>
<clipPath id="clip0_343_1020">
<rect width="42.23" height="42.23" fill="white" transform="translate(0.0673828 0.418457)"/>
</clipPath>
</defs>
</svg>
