<svg width="34" height="35" viewBox="0 0 34 35" fill="none" xmlns="http://www.w3.org/2000/svg">
<path fill-rule="evenodd" clip-rule="evenodd" d="M18.7369 7.09624C18.7369 3.69499 15.9795 0.937744 12.5783 0.937744L12.2404 0.946817C8.99625 1.12225 6.41972 3.8084 6.41972 7.09624C6.41972 10.4976 9.17705 13.2548 12.5783 13.2548L12.9162 13.2457C16.1603 13.0703 18.7369 10.3842 18.7369 7.09624ZM14.3379 27.3315C14.3379 29.2545 14.852 31.0574 15.7503 32.6103H0.26123V26.2758C0.26123 21.1593 4.19291 16.9873 9.11824 16.7819L9.49897 16.774H15.6575C17.2605 16.774 18.7681 17.1939 20.082 17.9326C16.6715 19.6828 14.3379 23.2346 14.3379 27.3315ZM19.7241 34.4492L24.8954 31.2906L30.0666 34.4492L28.6607 28.5549L33.2627 24.6128L27.2225 24.1286L24.8954 18.5336L22.5683 24.1286L16.528 24.6128L21.13 28.5549L19.7241 34.4492Z" fill="white"/>
</svg>
