<svg width="36" height="40" viewBox="0 0 36 40" fill="none" xmlns="http://www.w3.org/2000/svg">
<path d="M5.06302 0.937622C2.6348 0.937622 0.664062 2.90836 0.664062 5.33659V9.42586C0.665 10.3667 0.917359 11.2901 1.39502 12.1007C1.87268 12.9112 2.55828 13.5794 3.38086 14.036L13.502 19.6631C11.382 20.7334 9.68483 22.4871 8.68457 24.641C7.68432 26.7948 7.43945 29.223 7.98953 31.5332C8.53961 33.8434 9.85251 35.9007 11.7161 37.3726C13.5797 38.8446 15.8851 39.6452 18.2599 39.6452C20.6347 39.6452 22.9401 38.8446 24.8037 37.3726C26.6673 35.9007 27.9802 33.8434 28.5303 31.5332C29.0804 29.223 28.8355 26.7948 27.8353 24.641C26.835 22.4871 25.1378 20.7334 23.0178 19.6631L33.1425 14.0395C33.9649 13.5821 34.6502 12.9132 35.1272 12.1021C35.6043 11.2909 35.8558 10.3669 35.8558 9.42586V5.33659C35.8558 2.90836 33.885 0.937622 31.4568 0.937622H5.06302ZM14.7407 16.3234V4.45679H21.7791V16.3234L18.2599 18.2801L14.7407 16.3234ZM25.2983 29.091C25.2983 30.9577 24.5567 32.7479 23.2368 34.0678C21.9168 35.3878 20.1266 36.1293 18.2599 36.1293C16.3932 36.1293 14.603 35.3878 13.2831 34.0678C11.9631 32.7479 11.2216 30.9577 11.2216 29.091C11.2216 27.2243 11.9631 25.4341 13.2831 24.1141C14.603 22.7942 16.3932 22.0526 18.2599 22.0526C20.1266 22.0526 21.9168 22.7942 23.2368 24.1141C24.5567 25.4341 25.2983 27.2243 25.2983 29.091Z" fill="white"/>
</svg>
