<svg width="56" height="56" viewBox="0 0 56 56" fill="none" xmlns="http://www.w3.org/2000/svg">
<g clip-path="url(#clip0_943_1061)">
<path d="M28 0C20.5756 0 13.4487 2.95181 8.20312 8.20094C2.95213 13.4522 0.00150259 20.5738 0 28C0 35.4231 2.95312 42.5499 8.20312 47.7991C13.4487 53.0482 20.5756 56 28 56C35.4244 56 42.5513 53.0482 47.7969 47.7991C53.0469 42.5499 56 35.4231 56 28C56 20.5769 53.0469 13.4501 47.7969 8.20094C42.5513 2.95181 35.4244 0 28 0Z" fill="url(#paint0_linear_943_1061)"/>
<path d="M12.674 27.7022C20.8377 24.1462 26.2802 21.8017 29.0015 20.6689C36.7802 17.4345 38.3946 16.8727 39.449 16.8537C39.6808 16.85 40.1971 16.9073 40.534 17.1796C40.814 17.4093 40.8927 17.7199 40.9321 17.938C40.9671 18.1559 41.0152 18.6525 40.9759 19.0401C40.5559 23.4676 38.7315 34.2117 37.804 39.1708C37.4146 41.269 36.6402 41.9725 35.8921 42.0412C34.2646 42.1908 33.0309 40.9667 31.4559 39.9346C28.9927 38.319 27.6015 37.3136 25.2084 35.7373C22.4434 33.9155 24.2371 32.9141 25.8121 31.2778C26.2234 30.8495 33.3896 24.333 33.5252 23.7419C33.5427 23.668 33.5602 23.3923 33.394 23.2471C33.2321 23.1014 32.9915 23.1513 32.8165 23.1907C32.5671 23.2467 28.634 25.8489 21.004 30.997C19.8884 31.7643 18.8777 32.1384 17.9677 32.1187C16.9702 32.0973 15.0452 31.5535 13.6146 31.0888C11.8646 30.5188 10.469 30.2173 10.5915 29.2492C10.6527 28.7452 11.3484 28.2293 12.674 27.7022Z" fill="white"/>
</g>
<defs>
<linearGradient id="paint0_linear_943_1061" x1="2800" y1="0" x2="2800" y2="5600" gradientUnits="userSpaceOnUse">
<stop stop-color="#2AABEE"/>
<stop offset="1" stop-color="#229ED9"/>
</linearGradient>
<clipPath id="clip0_943_1061">
<rect width="56" height="56" fill="white"/>
</clipPath>
</defs>
</svg>
