<svg width="33" height="33" viewBox="0 0 33 33" fill="none" xmlns="http://www.w3.org/2000/svg">
<path d="M0.146262 21.6057L2.24494 22.6388C3.57745 23.2949 5.35715 22.9887 6.39405 21.9254L7.4136 20.8787L9.64199 24.2797C10.6962 25.889 12.773 25.8792 13.8167 24.2646L18.6958 16.7205L24.2837 26.2751C25.3749 28.1423 27.6229 27.864 28.2021 25.7714L32.6845 9.56934V27.3248C32.6845 30.9656 30.8468 32.8034 27.1524 32.8034H5.69574C2.01947 32.8034 0.145508 30.983 0.145508 27.3248L0.146262 21.6057ZM0.146262 18.2227V5.743C0.146262 2.08482 2.01947 0.264404 5.6965 0.264404H27.1524C29.2825 0.26541 30.7967 0.874478 31.6951 2.09161L30.6605 5.57408L25.8463 22.9729L20.8254 14.3851C19.836 12.6944 17.7373 12.6484 16.674 14.2923L11.7218 21.9503L9.73399 18.9158C8.74912 17.4121 6.76884 17.2205 5.514 18.507L4.23428 19.8192C4.10835 19.9481 3.73808 20.0122 3.57821 19.933L1.245 18.7845L0.146262 18.2227Z" fill="white"/>
</svg>
