<svg width="24" height="24" viewBox="0 0 24 24" fill="none" xmlns="http://www.w3.org/2000/svg">
<path fill-rule="evenodd" clip-rule="evenodd" d="M7.87571 9.84639V6.89255C7.87571 5.84801 8.29066 4.84625 9.02926 4.10765C9.76786 3.36904 10.7696 2.9541 11.8142 2.9541C12.8587 2.9541 13.8605 3.36904 14.5991 4.10765C15.3377 4.84625 15.7526 5.84801 15.7526 6.89255V9.84639H16.7372C17.2595 9.84639 17.7604 10.0539 18.1297 10.4232C18.499 10.7925 18.7065 11.2933 18.7065 11.8156V18.7079C18.7065 19.2302 18.499 19.7311 18.1297 20.1004C17.7604 20.4697 17.2595 20.6771 16.7372 20.6771H6.8911C6.36883 20.6771 5.86795 20.4697 5.49865 20.1004C5.12935 19.7311 4.92188 19.2302 4.92188 18.7079V11.8156C4.92188 11.2933 5.12935 10.7925 5.49865 10.4232C5.86795 10.0539 6.36883 9.84639 6.8911 9.84639H7.87571ZM9.84494 6.89255C9.84494 6.37028 10.0524 5.8694 10.4217 5.5001C10.791 5.1308 11.2919 4.92333 11.8142 4.92333C12.3364 4.92333 12.8373 5.1308 13.2066 5.5001C13.5759 5.8694 13.7834 6.37028 13.7834 6.89255V9.84639H9.84494V6.89255ZM11.8142 12.8002C12.0753 12.8002 12.3257 12.904 12.5104 13.0886C12.695 13.2733 12.7988 13.5237 12.7988 13.7848V16.7387C12.7988 16.9998 12.695 17.2503 12.5104 17.4349C12.3257 17.6196 12.0753 17.7233 11.8142 17.7233C11.553 17.7233 11.3026 17.6196 11.1179 17.4349C10.9333 17.2503 10.8296 16.9998 10.8296 16.7387V13.7848C10.8296 13.5237 10.9333 13.2733 11.1179 13.0886C11.3026 12.904 11.553 12.8002 11.8142 12.8002Z" fill="white"/>
</svg>
