<svg width="19" height="19" viewBox="0 0 19 19" fill="none" xmlns="http://www.w3.org/2000/svg">
<path d="M4.42608 6.20798C4.66238 4.73894 5.071 3.41562 5.61253 2.33353C6.1009 1.3568 6.72121 0.53366 7.44785 0C5.64569 0.372142 3.99363 1.2684 2.69909 2.57625C1.40456 3.8841 0.525249 5.54524 0.171564 7.35112C0.74345 7.08327 1.33868 6.86838 1.94977 6.70915C2.7642 6.49144 3.59118 6.32375 4.42608 6.207M0.0199338 9.7644C-0.00664459 9.34735 -0.00664459 8.92903 0.0199338 8.51198C0.0534106 8.48835 0.0888567 8.46472 0.126272 8.44109C0.58904 8.14275 1.28812 7.85622 2.19396 7.60909C2.88681 7.42451 3.58923 7.27791 4.29808 7.16995C4.16109 8.47854 4.16109 9.79785 4.29808 11.1064C3.58956 10.9984 2.88747 10.8518 2.19494 10.6673C1.2891 10.4192 0.588055 10.1336 0.126272 9.8353L0.0199338 9.7644ZM0.17058 10.9262C0.524508 12.7321 1.40404 14.3931 2.69875 15.7008C3.99346 17.0084 5.64564 17.9045 7.44785 18.2764C6.72121 17.7427 6.1009 16.9196 5.61253 15.9428C5.071 14.8598 4.6614 13.5374 4.42608 12.0684C3.59118 11.9517 2.7642 11.784 1.94977 11.5662C1.33841 11.4077 0.74285 11.1935 0.17058 10.9262ZM11.2071 18.2764C13.0093 17.9045 14.6615 17.0084 15.9562 15.7008C17.2509 14.3931 18.1304 12.7321 18.4844 10.9262C17.9124 11.1934 17.3172 11.4077 16.7062 11.5662C15.8914 11.784 15.0641 11.9517 14.2289 12.0684C13.9926 13.5374 13.584 14.8598 13.0424 15.9428C12.5541 16.9196 11.9337 17.7427 11.2071 18.2764ZM18.635 8.51198C18.6616 8.92903 18.6616 9.34735 18.635 9.7644L18.5297 9.8353C18.0669 10.1336 17.3668 10.4202 16.46 10.6673C15.8377 10.8366 15.1308 10.9843 14.3569 11.1064C14.4939 9.79785 14.4939 8.47854 14.3569 7.16995C15.1308 7.29106 15.8377 7.43973 16.46 7.60909C17.3668 7.85622 18.0669 8.14275 18.5297 8.44109C18.5671 8.46472 18.6022 8.48835 18.635 8.51198ZM18.4844 7.35112C18.1306 5.54511 17.2512 3.88387 15.9564 2.57601C14.6617 1.26815 13.0094 0.371969 11.2071 0C11.9337 0.53366 12.5541 1.3568 13.0424 2.33353C13.584 3.41661 13.9936 4.73894 14.2289 6.20798C15.0638 6.32473 15.8908 6.49243 16.7052 6.71014C17.3836 6.89426 17.9852 7.10792 18.4844 7.35013M5.39297 6.08392C5.62041 4.80885 5.9857 3.67359 6.4465 2.75101C7.14065 1.3627 7.99727 0.550398 8.86077 0.334768V5.87617C7.70215 5.88837 6.54483 5.95836 5.39297 6.08392ZM9.79418 5.87617V0.334768C10.6577 0.551383 11.5143 1.3627 12.2085 2.75101C12.6693 3.67359 13.0345 4.80885 13.262 6.08392C12.1101 5.95803 10.9528 5.8887 9.79418 5.87617ZM5.25118 7.039C6.44952 6.89907 7.65437 6.82216 8.86077 6.8086V11.4678C7.6547 11.4542 6.45017 11.3773 5.25217 11.2374C5.16996 10.5407 5.12919 9.83972 5.13007 9.13819C5.13007 8.41352 5.17143 7.7105 5.25118 7.039ZM13.4038 7.039C12.2054 6.89907 11.0006 6.82216 9.79418 6.8086V11.4678C11.0006 11.4542 12.2054 11.3773 13.4038 11.2374C13.4825 10.5659 13.5249 9.86287 13.5249 9.13819C13.5249 8.41352 13.4825 7.7105 13.4038 7.039ZM5.39297 12.1925C6.47407 12.3136 7.64182 12.3854 8.86077 12.3992V17.9416C7.99727 17.725 7.14065 16.9137 6.4465 15.5254C5.9857 14.6028 5.62041 13.4675 5.39297 12.1925ZM9.79418 12.4002V17.9416C10.6577 17.725 11.5143 16.9137 12.2085 15.5254C12.6693 14.6028 13.0345 13.4675 13.262 12.1925C12.1101 12.318 10.9528 12.388 9.79418 12.4002Z" fill="white"/>
</svg>
