<svg width="24" height="24" viewBox="0 0 24 24" fill="none" xmlns="http://www.w3.org/2000/svg">
<path d="M13.2912 21.4157H10.3374C10.1415 21.4157 9.9537 21.4935 9.81521 21.6319C9.67673 21.7704 9.59892 21.9583 9.59892 22.1541C9.59892 22.35 9.67673 22.5378 9.81521 22.6763C9.9537 22.8148 10.1415 22.8926 10.3374 22.8926H13.2912C13.4871 22.8926 13.6749 22.8148 13.8134 22.6763C13.9519 22.5378 14.0297 22.35 14.0297 22.1541C14.0297 21.9583 13.9519 21.7704 13.8134 21.6319C13.6749 21.4935 13.4871 21.4157 13.2912 21.4157ZM14.0297 19.2003H9.59892C9.40307 19.2003 9.21524 19.2781 9.07676 19.4166C8.93827 19.5551 8.86047 19.7429 8.86047 19.9387C8.86047 20.1346 8.93827 20.3224 9.07676 20.4609C9.21524 20.5994 9.40307 20.6772 9.59892 20.6772H14.0297C14.2255 20.6772 14.4134 20.5994 14.5519 20.4609C14.6903 20.3224 14.7681 20.1346 14.7681 19.9387C14.7681 19.7429 14.6903 19.5551 14.5519 19.4166C14.4134 19.2781 14.2255 19.2003 14.0297 19.2003ZM17.0491 2.89371C15.6612 1.50402 13.8021 0.73879 11.8143 0.73879C10.8439 0.736477 9.88259 0.925907 8.98561 1.2962C8.08862 1.66649 7.27363 2.21035 6.58745 2.89653C5.90126 3.58271 5.35741 4.3977 4.98712 5.29469C4.61682 6.19167 4.4274 7.15298 4.42971 8.12339C4.42971 10.2751 5.25448 12.2878 6.69124 13.6452L6.89247 13.834C7.7237 14.6112 8.86047 15.676 8.86047 16.6157V17.7234C8.86047 17.9192 8.93827 18.107 9.07676 18.2455C9.21524 18.384 9.40307 18.4618 9.59892 18.4618H10.7066C10.8045 18.4618 10.8985 18.4229 10.9677 18.3537C11.0369 18.2844 11.0758 18.1905 11.0758 18.0926V12.6843C11.0759 12.6096 11.0533 12.5367 11.011 12.4752C10.9687 12.4136 10.9088 12.3663 10.8391 12.3395C10.4127 12.1656 10.0076 11.9434 9.63169 11.6772C9.54723 11.6233 9.47463 11.5527 9.41831 11.4698C9.36199 11.3869 9.32313 11.2934 9.30411 11.195C9.28508 11.0966 9.28628 10.9954 9.30764 10.8975C9.32899 10.7996 9.37005 10.707 9.42832 10.6255C9.48659 10.5439 9.56084 10.4751 9.64657 10.4232C9.73229 10.3713 9.82768 10.3374 9.92693 10.3235C10.0262 10.3096 10.1272 10.3161 10.2239 10.3425C10.3206 10.369 10.4108 10.4148 10.4892 10.4772C10.8308 10.7191 11.4885 11.0772 11.8143 11.0772C12.1401 11.0772 12.7978 10.7181 13.1403 10.4772C13.2998 10.377 13.4915 10.3415 13.6763 10.3779C13.8611 10.4144 14.0249 10.5201 14.1344 10.6734C14.2438 10.8267 14.2905 11.016 14.265 11.2026C14.2394 11.3892 14.1435 11.559 13.9969 11.6772C13.621 11.9429 13.2159 12.1646 12.7895 12.3381C12.7198 12.3649 12.6599 12.4122 12.6176 12.4738C12.5754 12.5353 12.5527 12.6082 12.5528 12.6829V18.0926C12.5528 18.1905 12.5917 18.2844 12.6609 18.3537C12.7302 18.4229 12.8241 18.4618 12.922 18.4618H14.0297C14.2255 18.4618 14.4134 18.384 14.5519 18.2455C14.6903 18.107 14.7681 17.9192 14.7681 17.7234V16.6157C14.7681 15.6981 15.8924 14.6343 16.7135 13.8571L16.9401 13.642C18.418 12.2311 19.1989 10.3208 19.1989 8.12339C19.2038 7.15289 19.0163 6.19104 18.6473 5.29341C18.2783 4.39578 17.7351 3.58018 17.0491 2.89371Z" fill="white"/>
</svg>
