<svg width="24" height="24" viewBox="0 0 24 24" fill="none" xmlns="http://www.w3.org/2000/svg">
<path d="M10.8308 19.6925H6.89233C6.63119 19.6925 6.38075 19.7963 6.1961 19.9809C6.01145 20.1656 5.90771 20.416 5.90771 20.6772C5.90771 20.9383 6.01145 21.1887 6.1961 21.3734C6.38075 21.558 6.63119 21.6618 6.89233 21.6618H16.7385C16.9996 21.6618 17.25 21.558 17.4347 21.3734C17.6193 21.1887 17.7231 20.9383 17.7231 20.6772C17.7231 20.416 17.6193 20.1656 17.4347 19.9809C17.25 19.7963 16.9996 19.6925 16.7385 19.6925H12.8V18.4815C14.4277 18.1154 15.9177 17.2937 17.0959 16.1125C17.9215 15.2916 18.5762 14.3152 19.0219 13.2396C19.4675 12.164 19.6954 11.0107 19.6923 9.84641C19.6983 7.83487 19.0143 5.88211 17.7546 4.31387L18.4192 3.65123C18.5951 3.46479 18.6914 3.21717 18.6878 2.96088C18.6842 2.70459 18.5808 2.4598 18.3997 2.27843C18.2186 2.09705 17.974 1.99337 17.7177 1.98938C17.4614 1.98538 17.2136 2.08138 17.0269 2.25702L15.0065 4.27449L15.7036 4.97159C17.0053 6.27325 17.7231 8.00519 17.7231 9.84641C17.7231 11.6876 17.0053 13.4176 15.7036 14.7193C14.402 16.0209 12.672 16.7387 10.8308 16.7387C8.98955 16.7387 7.25959 16.0209 5.95793 14.7193C5.77331 14.5346 5.5229 14.4309 5.26181 14.4309C5.00071 14.4309 4.75031 14.5346 4.56569 14.7193C4.38106 14.9039 4.27734 15.1543 4.27734 15.4154C4.27734 15.5447 4.30281 15.6727 4.35228 15.7921C4.40176 15.9116 4.47427 16.0201 4.56569 16.1115C5.38641 16.9371 6.36274 17.5916 7.43815 18.0373C8.51355 18.483 9.66668 18.7109 10.8308 18.7079V19.6925ZM10.8308 3.93874C12.4623 3.93874 13.9392 4.6004 15.0085 5.6687C15.557 6.21735 15.9922 6.86868 16.289 7.58549C16.5858 8.30231 16.7385 9.07057 16.7385 9.84641C16.7384 11.413 16.1161 12.9153 15.0085 14.0231C14.4606 14.5727 13.8094 15.0086 13.0924 15.3057C12.3755 15.6027 11.6068 15.7551 10.8308 15.7541C10.0549 15.7551 9.28655 15.6028 8.56976 15.3059C7.85298 15.0091 7.20194 14.5734 6.65405 14.0241C5.58575 12.9548 4.92507 11.4779 4.92507 9.84641C4.92507 8.21491 5.58575 6.73799 6.65405 5.6687C7.20194 5.11939 7.85298 4.68377 8.56976 4.38688C9.28655 4.09 10.0549 3.9377 10.8308 3.93874Z" fill="white"/>
</svg>
