<svg width="16" height="20" viewBox="0 0 16 20" fill="none" xmlns="http://www.w3.org/2000/svg">
<path d="M6.55343 17.7033H2.61498C2.35385 17.7033 2.10341 17.807 1.91876 17.9917C1.73411 18.1763 1.63037 18.4268 1.63037 18.6879C1.63037 18.949 1.73411 19.1995 1.91876 19.3841C2.10341 19.5688 2.35385 19.6725 2.61498 19.6725H12.4611C12.7222 19.6725 12.9727 19.5688 13.1573 19.3841C13.342 19.1995 13.4457 18.949 13.4457 18.6879C13.4457 18.4268 13.342 18.1763 13.1573 17.9917C12.9727 17.807 12.7222 17.7033 12.4611 17.7033H8.52266V16.4922C10.1504 16.1261 11.6403 15.3045 12.8185 14.1232C13.6442 13.3024 14.2988 12.3259 14.7445 11.2503C15.1902 10.1747 15.4181 9.02142 15.4149 7.85715C15.4209 5.84562 14.737 3.89285 13.4772 2.32462L14.1418 1.66197C14.3177 1.47554 14.4141 1.22791 14.4105 0.971622C14.4068 0.715332 14.3035 0.470538 14.1224 0.289168C13.9413 0.107797 13.6966 0.00411672 13.4403 0.000119971C13.184 -0.00387678 12.9363 0.0921243 12.7496 0.267759L10.7292 2.28523L11.4263 2.98234C12.7279 4.28399 13.4457 6.01593 13.4457 7.85715C13.4457 9.69838 12.7279 11.4283 11.4263 12.73C10.1246 14.0317 8.39466 14.7494 6.55343 14.7494C4.71221 14.7494 2.98224 14.0317 1.68059 12.73C1.49596 12.5454 1.24556 12.4417 0.984464 12.4417C0.723368 12.4417 0.472966 12.5454 0.288343 12.73C0.10372 12.9146 0 13.165 0 13.4261C0 13.5554 0.0254639 13.6834 0.0749378 13.8029C0.124412 13.9223 0.196927 14.0308 0.288343 14.1222C1.10907 14.9478 2.08539 15.6024 3.1608 16.048C4.23621 16.4937 5.38934 16.7217 6.55343 16.7187V17.7033ZM6.55343 1.94948C8.18494 1.94948 9.66186 2.61114 10.7311 3.67944C11.2797 4.22809 11.7148 4.87942 12.0116 5.59623C12.3085 6.31305 12.4612 7.08131 12.4611 7.85715C12.461 9.4237 11.8388 10.9261 10.7311 12.0339C10.1832 12.5835 9.53206 13.0194 8.81509 13.3164C8.09812 13.6135 7.3295 13.7659 6.55343 13.7648C5.7776 13.7659 5.00921 13.6136 4.29242 13.3167C3.57564 13.0198 2.92459 12.5842 2.37671 12.0349C1.3084 10.9656 0.647726 9.48866 0.647726 7.85715C0.647726 6.22565 1.3084 4.74873 2.37671 3.67944C2.92459 3.13013 3.57564 2.69451 4.29242 2.39763C5.00921 2.10074 5.7776 1.94844 6.55343 1.94948Z" fill="white"/>
</svg>
