<svg width="49" height="50" viewBox="0 0 49 50" fill="none" xmlns="http://www.w3.org/2000/svg">
<path d="M9.27005 0.192091C8.81098 0.93059 10.4077 2.76686 12.244 3.64507C12.8627 3.94446 14.5793 4.48337 16.0363 4.8626C19.2098 5.66097 20.4872 6.25976 21.7646 7.59704C22.8025 8.67485 23.7406 10.3315 23.7406 11.07C23.7406 11.3295 23.9003 11.6688 24.0799 11.8684C24.3993 12.1877 24.4392 12.1278 24.8584 10.7706C25.4771 8.71477 26.9142 6.9783 28.7305 6.06016C29.2894 5.78073 30.9061 5.24183 32.3431 4.8626C33.7603 4.48337 35.4369 3.9245 36.0356 3.62511C37.3729 2.96645 39.1094 1.21002 39.1094 0.491482C39.1094 -0.207098 38.7102 -0.167179 37.2332 0.651157C34.5387 2.14811 32.8022 2.30779 29.8283 1.2699C25.7965 -0.107301 22.9822 -0.107301 18.8306 1.2699C15.6371 2.32775 13.8208 2.18803 11.0065 0.651157C9.64928 -0.0873413 9.46964 -0.12726 9.27005 0.192091Z" fill="white"/>
<path d="M35.8165 5.50143C35.3774 5.68106 34.9782 5.8607 34.9383 5.88066C34.8984 5.92058 35.3774 6.3996 35.9762 6.95847C36.6548 7.57721 37.3135 8.43546 37.6528 9.11409C38.1517 10.1121 38.2116 10.4713 38.2116 12.1479C38.2116 13.8245 38.1517 14.1838 37.6528 15.1818C36.9542 16.5989 35.8365 17.7565 34.4792 18.4751C33.5411 18.974 33.2018 19.0339 31.5252 19.0339C29.8287 19.0339 29.5093 18.974 28.4914 18.4551C27.3138 17.8563 27.0543 17.8763 26.8747 18.5349C26.7948 18.8343 26.9545 19.0738 27.4136 19.4331C31.8845 22.8462 38.6907 19.8722 39.9281 13.9842C40.2275 12.5072 40.0479 10.3516 39.509 8.89453C39.03 7.61713 37.3933 5.30184 36.9143 5.222C36.7546 5.20204 36.2556 5.32179 35.8165 5.50143Z" fill="white"/>
<path d="M10.4879 6.39941C8.9111 8.21572 8.09276 11.2495 8.53187 13.8243C9.41009 19.1934 15.1983 22.4268 19.8688 20.1315C20.5275 19.8121 21.2261 19.373 21.4057 19.1734C21.7051 18.8541 21.7051 18.7743 21.4456 18.3751L21.1462 17.9559L19.7092 18.5547C16.9348 19.7523 14.2003 19.2333 12.1445 17.1575C10.6077 15.5807 10.1087 14.2634 10.2085 11.9481C10.2883 9.83243 10.7873 8.73466 12.404 7.09799L13.5417 5.94034L13.0028 5.74075C11.6455 5.2218 11.4859 5.26172 10.4879 6.39941Z" fill="white"/>
<path d="M15.3781 7.17788C10.2884 8.65487 10.7475 16.3792 15.9968 17.5767C17.9928 18.0158 20.4877 16.7784 20.807 15.2016C20.9068 14.6227 21.1663 14.1836 21.6054 13.8244C22.1842 13.3453 22.2441 13.1857 22.2242 12.2476C22.1443 8.99419 18.4917 6.29966 15.3781 7.17788ZM18.4917 10.052C18.7512 10.2317 19.1504 10.6508 19.35 11.0101C20.7671 13.3254 17.7333 16.1397 15.438 14.6427C14.6995 14.1637 14.1007 12.8264 14.2204 11.8883C14.4799 10.0321 16.875 8.99419 18.4917 10.052Z" fill="white"/>
<path d="M15.9573 11.15C15.638 11.4693 15.5981 11.649 15.7577 11.9484C16.1769 12.7268 17.3345 12.2078 17.0551 11.3695C16.8755 10.7907 16.3964 10.7109 15.9573 11.15Z" fill="white"/>
<path d="M30.3278 7.138C28.1722 7.79666 26.4756 9.85248 26.2161 12.0879C26.0964 12.9861 26.1363 13.1258 26.795 13.9042C27.1941 14.3633 27.5534 15.002 27.6333 15.3214C28.0324 17.1177 31.4854 18.1756 33.6211 17.1377C35.3576 16.2994 36.7148 14.1438 36.7148 12.2476C36.7148 10.3714 35.2777 8.07609 33.6211 7.33759C32.8027 6.95837 31.2259 6.85857 30.3278 7.138ZM32.7229 9.81256C33.9804 10.4513 34.5193 12.5071 33.7808 13.7645C33.0423 15.022 31.1262 15.4411 29.9485 14.6228C29.4296 14.2436 28.751 12.8863 28.731 12.1877C28.7111 10.3515 31.0463 8.97427 32.7229 9.81256Z" fill="white"/>
<path d="M30.427 11.0702C30.0477 11.4694 30.1076 11.9285 30.5866 12.2278C30.9858 12.4873 31.5846 12.1879 31.6844 11.7089C31.7443 11.3895 31.2253 10.7508 30.9259 10.7508C30.8261 10.7508 30.6066 10.8906 30.427 11.0702Z" fill="white"/>
<path d="M23.0426 14.7823C22.5835 15.1416 22.5237 15.3012 22.6035 15.9799C22.6634 16.399 23.0426 17.4768 23.4618 18.355L24.2202 19.9917L24.9986 18.3151C26.0565 16.0198 26.0764 15.7403 25.4377 14.9819C24.7791 14.2035 23.8809 14.1236 23.0426 14.7823Z" fill="white"/>
<path d="M7.59361 17.8964C6.93494 19.1339 6.33616 25.1616 6.81519 25.7604C7.01478 26.0199 10.6274 27.5168 11.0665 27.5168C11.2462 27.5168 11.1663 23.8842 10.9468 22.5869C10.827 21.8883 10.5276 21.07 10.2881 20.7506C10.0686 20.4312 9.54963 19.7526 9.1704 19.2337C8.79117 18.6948 8.3321 18.096 8.15247 17.8764L7.83312 17.4573L7.59361 17.8964Z" fill="white"/>
<path d="M39.1894 19.0935C38.5108 19.9318 37.8521 20.8499 37.7124 21.1294C37.5527 21.4288 37.413 22.7062 37.3531 24.4626C37.2334 27.8357 37.0538 27.6761 39.908 26.5583L41.8041 25.8198L41.864 24.8219C42.0037 22.8259 41.0257 17.5167 40.5467 17.5566C40.4668 17.5566 39.868 18.2552 39.1894 19.0935Z" fill="white"/>
<path d="M21.346 21.1494C19.2702 22.5066 16.935 22.9657 14.6995 22.4467C13.941 22.2671 13.2425 22.1274 13.1427 22.1274C13.0229 22.1274 12.983 23.3848 13.0029 25.3608L13.0628 28.5942L15.458 29.8716C19.3101 31.9075 21.8849 33.8435 23.4816 35.8794L24.2201 36.8175L26.236 34.8016C28.3118 32.6859 30.6072 31.0093 33.6809 29.3527L35.4174 28.4146L35.4773 25.1412L35.5371 21.8879L35.0781 22.0076C34.8186 22.0874 34.0003 22.287 33.2418 22.4667C31.3856 22.8858 29.7689 22.6264 27.6731 21.5286C26.7949 21.0895 26.0365 20.7701 25.9566 20.83C25.8568 20.8699 25.4576 21.4088 25.0385 22.0276C24.6193 22.6264 24.2002 23.1253 24.1004 23.1253C24.0006 23.1253 23.5615 22.5465 23.1224 21.828C22.6633 21.1094 22.2841 20.5306 22.2641 20.5506C22.2641 20.5506 21.845 20.83 21.346 21.1494Z" fill="white"/>
<path d="M42.4034 27.5165C40.4474 27.9556 33.7011 31.0892 31.306 32.666C29.35 33.9434 26.1964 36.7976 25.0587 38.3145L24.1805 39.4922L23.1825 38.1349C21.4061 35.7797 19.4102 34.0831 15.8574 32.0074C12.7038 30.1511 5.75791 27.2371 5.39864 27.6362C5.29884 27.736 5.17909 28.1352 5.09925 28.5344L4.97949 29.253L7.41454 30.1112C15.3584 32.8856 18.492 34.622 22.1446 38.2147L24.2403 40.2905L25.5377 39.0131C30.4278 34.2029 33.8408 32.2469 41.1061 30.0513L43.4014 29.3528L43.3814 28.5145C43.3615 27.5165 43.1818 27.3369 42.4034 27.5165Z" fill="white"/>
<path d="M3.42199 31.329C3.48187 31.8879 3.58167 32.0077 4.28025 32.2272C8.39189 33.4847 9.54953 33.8839 11.4457 34.6423C14.3398 35.8 17.3537 37.3169 18.8307 38.3747C19.5093 38.8537 20.7268 39.9715 21.5651 40.8697C23.102 42.5063 23.6808 42.8856 23.4413 42.0273C23.0221 40.6501 19.8486 37.6362 16.8946 35.8598C14.5793 34.4627 6.63546 31.349 4.02077 30.8101C3.36211 30.6704 3.36211 30.6903 3.42199 31.329Z" fill="white"/>
<path d="M43.9996 30.8499C42.5026 31.2291 38.1914 32.6462 36.7543 33.245C32.8822 34.8417 29.7884 36.7379 27.2935 39.0731C25.8564 40.4104 24.6988 42.107 24.9982 42.4064C25.078 42.4862 26.056 41.6679 27.1738 40.5701C30.9661 36.9175 34.6985 34.9615 42.1633 32.8059C44.6582 32.0674 45.4766 31.748 45.3967 31.5484C45.3368 31.4087 45.2969 31.1492 45.2969 30.9896C45.2969 30.7101 44.7979 30.6503 43.9996 30.8499Z" fill="white"/>
<path d="M45.9959 33.4443C45.7764 33.4842 44.2794 33.8834 42.6627 34.3225C37.593 35.6797 32.9225 37.7156 30.1681 39.7315C28.8109 40.7294 27.1343 42.2663 27.1343 42.5058C27.1343 42.8851 27.9526 42.6655 28.5714 42.1066C31.186 39.8313 37.593 36.8972 42.7825 35.5799C43.4611 35.4202 44.6587 35.1009 45.457 34.8614C46.8143 34.4622 46.9141 34.4023 46.8542 33.9432C46.7943 33.4043 46.6346 33.3045 45.9959 33.4443Z" fill="white"/>
<path d="M1.98536 33.9834C1.98536 34.5423 1.94544 34.5223 6.43632 35.8796C12.7635 37.7957 16.4559 39.5521 19.9488 42.2666C20.6075 42.7855 21.346 42.9851 21.346 42.6658C21.346 42.2666 19.2902 40.3705 17.913 39.4922C15.1985 37.7358 10.4282 35.6999 5.41839 34.183C2.64402 33.3447 1.98536 33.3048 1.98536 33.9834Z" fill="white"/>
<path d="M0.288582 36.2389C-0.509795 37.0174 0.148866 37.3766 4.81937 38.7938C11.0268 40.65 12.5237 41.2887 17.0146 43.9233C19.1902 45.2007 19.4297 45.4003 19.8289 46.2785C20.8268 48.4342 22.244 49.512 24.1002 49.512C25.9764 49.512 27.1939 48.6936 28.6509 46.4382C29.7287 44.7816 31.4452 43.5042 34.8184 41.8675C37.5928 40.5302 40.8062 39.4325 44.8979 38.3746C48.0315 37.5962 48.6902 37.2968 48.6902 36.698C48.6902 35.8398 48.0914 35.8597 44.359 36.8776C34.3394 39.652 29.8285 41.9673 27.2138 45.6997C25.9165 47.536 25.2578 47.9551 24.0004 47.8154C22.9026 47.6957 21.8847 46.9172 21.2061 45.6798C20.4875 44.3824 20.0684 44.0032 17.9327 42.5661C14.7592 40.4504 10.9868 38.8536 4.85929 37.0174C1.50611 36.0194 0.647852 35.8797 0.288582 36.2389Z" fill="white"/>
<path d="M22.7225 44.5019C22.4231 44.6815 22.8622 45.6196 23.421 45.9789C24.0997 46.438 24.9978 46.2184 25.6365 45.44C25.916 45.1207 26.1355 44.7813 26.1355 44.6815C26.1355 44.482 23.0019 44.3223 22.7225 44.5019Z" fill="white"/>
</svg>
