<svg width="183" height="154" viewBox="0 0 183 154" fill="none" xmlns="http://www.w3.org/2000/svg">
<path d="M35.4575 1.62244C33.7488 4.37122 39.6921 11.206 46.5269 14.4749C48.8299 15.5892 55.219 17.5951 60.6423 19.0066C72.4546 21.9783 77.2093 24.207 81.9639 29.1846C85.8271 33.1963 89.3188 39.3625 89.3188 42.1113C89.3188 43.077 89.9131 44.34 90.5817 45.0829C91.7704 46.2716 91.919 46.0487 93.4791 40.9969C95.7821 33.3449 101.131 26.8815 107.892 23.4641C109.972 22.424 115.989 20.4182 121.338 19.0066C126.613 17.5951 132.854 15.5149 135.082 14.4006C140.06 11.9489 146.523 5.4113 146.523 2.73681C146.523 0.136612 145.037 0.285194 139.54 3.33114C129.51 8.903 123.047 9.49733 111.978 5.63417C96.9708 0.508068 86.4957 0.508068 71.0431 5.63417C59.1564 9.57162 52.3959 9.05158 41.9208 3.33114C36.869 0.582359 36.2004 0.433777 35.4575 1.62244Z" fill="white"/>
<path d="M134.265 21.3843C132.63 22.053 131.144 22.7216 130.996 22.7959C130.847 22.9445 132.63 24.7275 134.859 26.8076C137.385 29.1106 139.836 32.3052 141.099 34.8311C142.957 38.5457 143.18 39.8829 143.18 46.1234C143.18 52.3639 142.957 53.7011 141.099 57.4157C138.499 62.6904 134.339 66.9993 129.287 69.6738C125.795 71.5311 124.532 71.7539 118.292 71.7539C111.977 71.7539 110.788 71.5311 107 69.5995C102.616 67.3707 101.651 67.445 100.982 69.8966C100.685 71.011 101.279 71.9025 102.988 73.2398C119.629 85.9436 144.963 74.8742 149.569 52.9582C150.683 47.4606 150.014 39.4372 148.008 34.0139C146.225 29.2592 140.134 20.6414 138.351 20.3443C137.756 20.27 135.899 20.7157 134.265 21.3843Z" fill="white"/>
<path d="M39.9915 24.7274C34.1225 31.4879 31.0765 42.7802 32.711 52.3638C35.9798 72.3482 57.5243 84.3834 74.9085 75.8399C77.3601 74.6512 79.9603 73.0168 80.6289 72.2739C81.7433 71.0852 81.7433 70.7881 80.7775 69.3023L79.6631 67.7421L74.3142 69.9709C63.9877 74.4284 53.8097 72.4968 46.1577 64.7705C40.4373 58.9015 38.58 53.9982 38.9514 45.3804C39.2486 37.5055 41.1059 33.4195 47.1235 27.3276L51.3581 23.0187L49.3522 22.2758C44.3004 20.3442 43.7061 20.4928 39.9915 24.7274Z" fill="white"/>
<path d="M58.1937 27.624C39.2494 33.1216 40.9581 61.8724 60.4968 66.3299C67.9259 67.9643 77.2124 63.3582 78.401 57.4892C78.7725 55.3348 79.7383 53.7003 81.3727 52.3631C83.5271 50.5801 83.75 49.9858 83.6757 46.4941C83.3785 34.3846 69.7832 24.3552 58.1937 27.624ZM69.7832 38.322C70.749 38.9906 72.2348 40.5508 72.9777 41.888C78.2524 50.5058 66.9601 60.9809 58.4166 55.409C55.6678 53.626 53.4391 48.6485 53.8848 45.1568C54.8506 38.2477 63.7656 34.3846 69.7832 38.322Z" fill="white"/>
<path d="M60.3442 42.4088C59.1555 43.5975 59.0069 44.2661 59.6013 45.3805C61.1614 48.2778 65.4703 46.3463 64.4302 43.226C63.7616 41.0716 61.9786 40.7744 60.3442 42.4088Z" fill="white"/>
<path d="M113.837 27.4766C105.813 29.9282 99.4987 37.5802 98.5329 45.9009C98.0871 49.244 98.2357 49.764 100.687 52.6614C102.173 54.3701 103.51 56.7474 103.808 57.9361C105.293 64.6223 118.146 68.5598 126.095 64.6966C132.558 61.5764 137.61 53.5529 137.61 46.4952C137.61 39.5118 132.261 30.9683 126.095 28.2195C123.049 26.808 117.18 26.4365 113.837 27.4766ZM122.752 37.4316C127.432 39.809 129.438 47.461 126.689 52.1413C123.941 56.8217 116.809 58.3818 112.425 55.3359C110.494 53.9243 107.968 48.8725 107.894 46.2723C107.819 39.4375 116.511 34.3114 122.752 37.4316Z" fill="white"/>
<path d="M114.205 42.1108C112.793 43.5966 113.016 45.3053 114.799 46.4197C116.285 47.3855 118.513 46.2711 118.885 44.4881C119.108 43.2994 117.176 40.9221 116.062 40.9221C115.69 40.9221 114.873 41.4421 114.205 42.1108Z" fill="white"/>
<path d="M86.7179 55.929C85.0092 57.2663 84.7863 57.8606 85.0835 60.3865C85.3063 61.9466 86.7179 65.9584 88.278 69.2272L91.1011 75.3191L93.9984 69.0786C97.9359 60.5351 98.0102 59.495 95.6328 56.6719C93.1812 53.7746 89.8381 53.4774 86.7179 55.929Z" fill="white"/>
<path d="M29.2194 67.5192C26.7678 72.1252 24.539 94.5612 26.322 96.79C27.0649 97.7558 40.5117 103.328 42.1461 103.328C42.8147 103.328 42.5176 89.8066 41.7004 84.9777C41.2546 82.3775 40.1402 79.3315 39.2487 78.1428C38.4315 76.9542 36.5 74.4283 35.0884 72.4967C33.6769 70.4908 31.9682 68.2621 31.2996 67.4449L30.1109 65.8848L29.2194 67.5192Z" fill="white"/>
<path d="M146.819 71.976C144.293 75.0963 141.842 78.5137 141.322 79.5538C140.727 80.6681 140.207 85.4228 139.984 91.9604C139.539 104.516 138.87 103.921 149.494 99.761L156.551 97.0122L156.774 93.2977C157.294 85.8685 153.654 66.107 151.871 66.2556C151.574 66.2556 149.345 68.8558 146.819 71.976Z" fill="white"/>
<path d="M80.4056 79.6285C72.6792 84.6803 63.9871 86.389 55.6665 84.4574C52.8434 83.7888 50.2432 83.2688 49.8718 83.2688C49.426 83.2688 49.2774 87.9491 49.3517 95.304L49.5746 107.339L58.4896 112.094C72.8278 119.672 82.4114 126.878 88.3547 134.456L91.1035 137.947L98.607 130.444C106.333 122.569 114.877 116.328 126.318 110.162L132.781 106.671L133.004 94.4868L133.227 82.3773L131.518 82.823C130.552 83.1202 127.506 83.8631 124.683 84.5317C117.774 86.0918 111.757 85.1261 103.956 81.04C100.687 79.4056 97.864 78.217 97.5669 78.4398C97.1954 78.5884 95.7096 80.5943 94.1495 82.8973C92.5893 85.1261 91.0292 86.9833 90.6578 86.9833C90.2863 86.9833 88.6519 84.8289 87.0175 82.1544C85.3088 79.4799 83.8973 77.3255 83.823 77.3997C83.823 77.3997 82.2628 78.4398 80.4056 79.6285Z" fill="white"/>
<path d="M158.784 103.328C151.503 104.962 126.393 116.626 117.478 122.495C110.197 127.25 98.4591 137.874 94.2245 143.52L90.9557 147.903L87.2411 142.851C80.6292 134.085 73.2 127.77 59.9761 120.044C48.2381 113.134 22.3847 102.288 21.0474 103.774C20.676 104.145 20.2302 105.631 19.9331 107.117L19.4873 109.791L28.5509 112.986C58.1188 123.312 69.7826 129.776 83.3779 143.148L91.1785 150.875L96.0075 146.12C114.209 128.216 126.913 120.935 153.955 112.763L162.498 110.163L162.424 107.043C162.35 103.328 161.681 102.659 158.784 103.328Z" fill="white"/>
<path d="M13.6924 117.518C13.9153 119.598 14.2867 120.044 16.8869 120.861C32.1909 125.541 36.4998 127.027 43.5575 129.85C54.3298 134.159 65.5478 139.805 71.0454 143.743C73.5713 145.526 78.103 149.686 81.2233 153.029C86.9437 159.121 89.0982 160.533 88.2067 157.338C86.6466 152.212 74.8342 140.994 63.8391 134.382C55.2213 129.182 25.6533 117.592 15.9211 115.586C13.4695 115.066 13.4695 115.14 13.6924 117.518Z" fill="white"/>
<path d="M164.727 115.734C159.156 117.146 143.109 122.42 137.76 124.649C123.347 130.592 111.832 137.65 102.546 146.342C97.1965 151.32 92.8876 157.634 94.002 158.749C94.2992 159.046 97.9395 156 102.1 151.914C116.215 138.319 130.108 131.038 157.893 123.015C167.179 120.266 170.225 119.077 169.928 118.334C169.705 117.814 169.556 116.848 169.556 116.254C169.556 115.214 167.699 114.991 164.727 115.734Z" fill="white"/>
<path d="M172.154 125.392C171.337 125.54 165.765 127.026 159.747 128.66C140.877 133.712 123.493 141.29 113.241 148.793C108.189 152.508 101.949 158.228 101.949 159.12C101.949 160.531 104.995 159.714 107.298 157.634C117.03 149.165 140.877 138.244 160.193 133.341C162.719 132.746 167.177 131.558 170.148 130.666C175.2 129.18 175.572 128.958 175.349 127.249C175.126 125.243 174.531 124.872 172.154 125.392Z" fill="white"/>
<path d="M8.34184 127.398C8.34184 129.478 8.19326 129.404 24.9088 134.456C48.4592 141.588 62.2031 148.125 75.2041 158.229C77.6557 160.16 80.4045 160.903 80.4045 159.715C80.4045 158.229 72.7525 151.171 67.6264 147.902C57.5228 141.365 39.7671 133.787 21.12 128.141C10.7935 125.021 8.34184 124.872 8.34184 127.398Z" fill="white"/>
<path d="M2.02824 135.793C-0.943418 138.69 1.5082 140.028 18.8924 145.302C41.997 152.211 47.5689 154.589 64.2845 164.395C72.3822 169.15 73.2737 169.893 74.7596 173.162C78.4741 181.185 83.7488 185.197 90.6579 185.197C97.6413 185.197 102.173 182.151 107.596 173.756C111.608 167.59 117.997 162.835 130.552 156.743C140.879 151.766 152.84 147.68 168.07 143.742C179.733 140.845 182.185 139.73 182.185 137.502C182.185 134.307 179.956 134.381 166.064 138.17C128.769 148.497 111.98 157.115 102.247 171.007C97.4184 177.842 94.9668 179.402 90.2865 178.882C86.2004 178.436 82.4116 175.539 79.8857 170.933C77.2112 166.104 75.651 164.692 67.7019 159.343C55.8895 151.468 41.8484 145.525 19.041 138.69C6.56002 134.976 3.36548 134.456 2.02824 135.793Z" fill="white"/>
</svg>
